<svg width="45" height="51" viewBox="0 0 45 51" fill="none" xmlns="http://www.w3.org/2000/svg">
<path fill-rule="evenodd" clip-rule="evenodd" d="M30.3571 44.0725L30.3571 3.03687C30.3571 2.48458 30.8048 2.03687 31.3571 2.03687C31.8845 2.03687 32.3166 2.44522 32.3544 2.96303C32.3621 2.96645 32.3698 2.96997 32.3774 2.97361C34.6018 4.0304 36.3666 4.51914 37.9878 4.53066C39.5946 4.54209 41.1567 4.08519 42.9782 3.08264C43.4621 2.81634 44.0702 2.99269 44.3365 3.47653C44.6028 3.96037 44.4264 4.56848 43.9426 4.83478C41.9115 5.9527 40.0123 6.54511 37.9736 6.53061C36.1919 6.51794 34.3788 6.04201 32.3571 5.16195V10.0622C32.3725 10.0679 32.3879 10.074 32.4032 10.0806C34.5352 10.9925 36.2373 11.4188 37.8091 11.4301C39.3688 11.4414 40.8806 11.0445 42.6332 10.1815C43.1287 9.93757 43.7282 10.1415 43.9721 10.6369C44.2161 11.1324 44.0122 11.7319 43.5167 11.9758C41.5604 12.9391 39.7401 13.4441 37.7947 13.4301C36.0747 13.4177 34.3209 12.9998 32.3571 12.2243L32.3571 46.9078C32.3706 46.9799 32.3829 47.0532 32.3939 47.1279C31.8959 49.7562 29.1231 51.0344 24.2898 51C19.4564 50.9656 15.4789 49.9667 15.5 47C15.5211 44.0333 19.1666 42.9656 24 43C26.733 43.0194 28.8999 43.2587 30.3571 44.0725ZM39.885 20.677L32.866 16.6279C27.8283 20.9959 21.3471 22.175 16.812 19.0582C12.7181 16.2445 11.3242 10.6956 12.7635 5.0313L4.49907 0.263755C4.46238 0.242588 4.42552 0.222296 4.38851 0.202866C4.56186 8.86619 9.48565 17.1418 17.8371 21.215C25.1171 24.7658 33.31 24.298 39.885 20.677ZM2.09732 0C-0.748074 10.7685 4.33569 22.4162 14.7692 27.505C24.4362 32.2199 35.7127 29.8493 42.6735 22.4188C43.975 23.7619 43.7537 26.0889 42.0086 27.0972L25.1982 36.8107C22.339 36.6208 19.408 36.0169 16.5097 34.9621C8.74999 32.1378 2.88829 26.6858 0.00626213 20.4394L2.02806e-07 2.86343C-0.00049973 1.45926 0.923342 0.374929 2.09732 0ZM31.0459 15.5779L14.9691 6.30367C15.1974 9.95471 16.7348 13.1644 19.5384 15.0913C22.7901 17.3262 27.0425 17.3523 31.0459 15.5779ZM14.3223 40.9719C15.1076 41.2577 15.8953 41.5104 16.6833 41.7308L10.2105 45.4709C9.8915 45.3514 9.57366 45.2228 9.25731 45.0853C5.1153 43.2843 1.9313 40.2393 0.0120387 36.653L0.0097573 30.2497C3.23734 34.8625 8.18644 38.7386 14.3223 40.9719ZM0.0147357 44.2231C1.3707 45.8773 3.03869 47.3334 4.97676 48.4951L4.51635 48.7612C2.51676 49.9166 0.0162502 48.4741 0.0154275 46.1647L0.0147357 44.2231Z" fill="url(#paint0_linear_3_100)"/>
<defs>
<linearGradient id="paint0_linear_3_100" x1="6.00001" y1="15.9359" x2="25.4636" y2="49.8513" gradientUnits="userSpaceOnUse">
<stop stop-color="#A94AD6"/>
<stop offset="1" stop-color="#FFE863"/>
</linearGradient>
</defs>
</svg>
